<svg id="checked" xmlns="http://www.w3.org/2000/svg" width="35.051" height="35.051" viewBox="0 0 35.051 35.051">
  <g id="Check_Circle">
    <path id="Path_16" data-name="Path 16" d="M17.526,0A17.526,17.526,0,1,0,35.051,17.526,17.525,17.525,0,0,0,17.526,0Zm0,32.861A15.335,15.335,0,1,1,32.861,17.526,15.335,15.335,0,0,1,17.526,32.861Z" fill="#fff"/>
    <path id="Path_17" data-name="Path 17" d="M102.14,121.832,90.871,133l-4.689-4.6a1.113,1.113,0,0,0-1.564,0,1.086,1.086,0,0,0,0,1.549l5.476,5.366a1.134,1.134,0,0,0,1.564,0l12.048-11.938a1.088,1.088,0,0,0,0-1.549A1.116,1.116,0,0,0,102.14,121.832Z" transform="translate(-76.618 -110.448)" fill="#fff"/>
  </g>
</svg>
