<svg id="check-svgrepo-com_2_" data-name="check-svgrepo-com (2)" xmlns="http://www.w3.org/2000/svg" width="27" height="27" viewBox="0 0 27 27">
  <path id="Path_631" data-name="Path 631" d="M13.5,0A13.5,13.5,0,1,0,27,13.5,13.515,13.515,0,0,0,13.5,0Zm0,24.545A11.045,11.045,0,1,1,24.545,13.5,11.058,11.058,0,0,1,13.5,24.545Z" fill="#fff"/>
  <path id="Path_632" data-name="Path 632" d="M89.741,102.63,82.8,109.573l-3.182-3.182a1.227,1.227,0,1,0-1.736,1.736l4.05,4.05a1.227,1.227,0,0,0,.868.36h0a1.228,1.228,0,0,0,.868-.359l7.81-7.81a1.227,1.227,0,0,0-1.736-1.736Z" transform="translate(-71.179 -93.903)" fill="#fff"/>
</svg>
