<svg xmlns="http://www.w3.org/2000/svg" width="48.5" height="30.397" viewBox="0 0 48.5 30.397">
  <g id="laptop-svgrepo-com" transform="translate(0 -91.474)">
    <g id="Group_67" data-name="Group 67" transform="translate(0 91.474)">
      <g id="Group_66" data-name="Group 66" transform="translate(0 0)">
        <g id="Group_65" data-name="Group 65">
          <path id="Path_633" data-name="Path 633" d="M34.326,120.011a14.032,14.032,0,0,1,2.4,1.118H3.345A3.34,3.34,0,0,1,0,117.785v-2.058H2.85V94.5a3.028,3.028,0,0,1,3.028-3.028H37.3A3.028,3.028,0,0,1,40.332,94.5v9.321c-.178,0-.356-.01-.534-.01a19.979,19.979,0,0,0-2.879.208c-.228-.376-.465-.752-.7-1.128h0V95.62H6.976v20.127H17.534v.208a1.149,1.149,0,0,0,1.148,1.148h5.8a1.149,1.149,0,0,0,1.148-1.148v-.208h2.118a17.176,17.176,0,0,1,2.315,1.6c.208.178.465.356.722.554a7.5,7.5,0,0,1,.742.584A7.552,7.552,0,0,0,34.326,120.011Zm13.655-4.255a13.523,13.523,0,0,1-.445-1.742,21.716,21.716,0,0,0-1.672-6.778.927.927,0,0,0-.564-.574,17.5,17.5,0,0,0-9.341-.485l-.643-1.009c-.5-.841-1.039-1.643-1.544-2.484-.574-.92-1.108-1.811-1.682-2.691a1.358,1.358,0,0,0-1.791-.5,1.311,1.311,0,0,0-.544,1.751c1.385,3.216,2.781,6.382,4.087,9.588a3.644,3.644,0,0,1,.237,1.128c-.01.782-.188,1.435-.9,1.079-.821-.406-2.583-1.534-3.008-1.613a3.418,3.418,0,0,0-2.157-.03,1.842,1.842,0,0,0-.871.772c-.3.594-.188,1,.416,1.267a17.268,17.268,0,0,1,3.75,2.4c.435.356,1.1.782,1.524,1.187a5.228,5.228,0,0,0,2.078,1.128,15.461,15.461,0,0,1,5.284,3.117,2.212,2.212,0,0,0,2.721.247l5.106-3.345a1.141,1.141,0,0,0,.386-1.375Z" transform="translate(0 -91.474)" fill="#fff"/>
        </g>
      </g>
    </g>
  </g>
</svg>
