<svg xmlns="http://www.w3.org/2000/svg" width="22.777" height="22.776" viewBox="0 0 22.777 22.776">
  <g id="Group_93" data-name="Group 93" transform="translate(-28.697 0)">
    <path id="Path_606" data-name="Path 606" d="M108.4,22.776H94.918a4.65,4.65,0,0,1-4.645-4.645V4.645A4.65,4.65,0,0,1,94.918,0H108.4a4.651,4.651,0,0,1,4.645,4.645V18.131a4.651,4.651,0,0,1-4.645,4.645M94.918,1.272a3.377,3.377,0,0,0-3.374,3.373V18.131A3.377,3.377,0,0,0,94.918,21.5H108.4a3.377,3.377,0,0,0,3.374-3.374V4.645A3.378,3.378,0,0,0,108.4,1.272Z" transform="translate(-61.576 0)" fill="#0f192d"/>
    <path id="Path_607" data-name="Path 607" d="M119.952,15.608h1.2V13l-1.8,0a3.4,3.4,0,0,0-3.768,3.686v2.051h-2v2.476h2v6.3h3v-6.3h2l.568-2.475H118.58V17.047a1.322,1.322,0,0,1,1.373-1.439" transform="translate(-77.472 -8.868)" fill="#0f192d"/>
  </g>
</svg>
