<svg xmlns="http://www.w3.org/2000/svg" width="20.886" height="20.704" viewBox="0 0 20.886 20.704">
  <g id="Group_87" data-name="Group 87" transform="translate(-24.891 -0.736)">
    <g id="Group_90" data-name="Group 90" transform="translate(0 0)">
      <g id="Group_88" data-name="Group 88">
        <path id="Path_39" data-name="Path 39" d="M50.791,7.048a7.979,7.979,0,0,1,.874-2.762,5.813,5.813,0,0,1,5.181-2.732q4.376-.107,8.756,0a5.843,5.843,0,0,1,4.95,2.417,6.4,6.4,0,0,1,1.085,3.678c.043,2.8.062,5.61,0,8.413A5.725,5.725,0,0,1,68.685,21.4a6.67,6.67,0,0,1-3.139.773c-2.881.033-5.763.061-8.642,0a5.853,5.853,0,0,1-5.239-2.736,7.983,7.983,0,0,1-.874-2.762ZM61.242,3.53c-1.431,0-2.862-.027-4.293.006-2.235.052-3.609,1.1-4.015,3.024a6.226,6.226,0,0,0-.153,1.247c-.013,2.709-.049,5.42.006,8.128S54.2,20.071,56.8,20.166c2.936.108,5.877.1,8.814,0a3.651,3.651,0,0,0,3.867-2.985,4.866,4.866,0,0,0,.146-1.017c.016-3.089.185-6.182-.094-9.265a3.488,3.488,0,0,0-3.208-3.269,43.717,43.717,0,0,0-5.087-.1" transform="translate(-25.9 -0.766)" fill="#fff"/>
        <path id="Path_40" data-name="Path 40" d="M71.836,17.077a5.412,5.412,0,1,1-5.376-5.408,5.424,5.424,0,0,1,5.376,5.408M69.83,17.05a3.405,3.405,0,1,0-3.413,3.363A3.4,3.4,0,0,0,69.83,17.05" transform="translate(-31.113 -5.95)" fill="#fff"/>
        <path id="Path_41" data-name="Path 41" d="M82.036,8.787a1.31,1.31,0,0,1,1.321,1.293,1.315,1.315,0,0,1-2.629.011,1.3,1.3,0,0,1,1.308-1.3" transform="translate(-41.167 -4.481)" fill="#fff"/>
      </g>
    </g>
  </g>
</svg>
