<svg xmlns="http://www.w3.org/2000/svg" width="22.777" height="22.776" viewBox="0 0 22.777 22.776">
  <g id="Group_91" data-name="Group 91" transform="translate(0 0)">
    <g id="Group_89" data-name="Group 89">
      <path id="Path_602" data-name="Path 602" d="M14.515,18.3a5.177,5.177,0,0,1,.567-1.791,3.771,3.771,0,0,1,3.361-1.772q2.839-.07,5.68,0A3.791,3.791,0,0,1,27.334,16.3a4.156,4.156,0,0,1,.7,2.386c.028,1.819.04,3.639,0,5.458a3.714,3.714,0,0,1-1.914,3.459,4.327,4.327,0,0,1-2.036.5c-1.869.022-3.738.04-5.606,0a3.8,3.8,0,0,1-3.4-1.774,5.178,5.178,0,0,1-.567-1.792Zm6.779-2.282c-.928,0-1.857-.018-2.785,0a2.417,2.417,0,0,0-2.6,1.961,4.039,4.039,0,0,0-.1.809c-.009,1.757-.032,3.515,0,5.272a2.467,2.467,0,0,0,2.606,2.745c1.9.07,3.812.064,5.717,0a2.368,2.368,0,0,0,2.508-1.937,3.156,3.156,0,0,0,.094-.66c.01-2,.12-4.01-.061-6.01a2.262,2.262,0,0,0-2.081-2.12,28.358,28.358,0,0,0-3.3-.066" transform="translate(-9.901 -10.028)" fill="#0f192d"/>
      <path id="Path_603" data-name="Path 603" d="M31.758,28.377a3.51,3.51,0,1,1-3.488-3.508,3.519,3.519,0,0,1,3.488,3.508m-1.3-.017a2.209,2.209,0,1,0-2.214,2.181,2.207,2.207,0,0,0,2.214-2.181" transform="translate(-16.873 -16.963)" fill="#0f192d"/>
      <path id="Path_604" data-name="Path 604" d="M45.3,21.987a.85.85,0,0,1,.857.839.853.853,0,0,1-1.705.007.843.843,0,0,1,.849-.846" transform="translate(-30.321 -14.997)" fill="#0f192d"/>
      <path id="Path_605" data-name="Path 605" d="M18.131,22.776H4.645A4.65,4.65,0,0,1,0,18.131V4.645A4.65,4.65,0,0,1,4.645,0H18.131a4.651,4.651,0,0,1,4.645,4.645V18.131a4.651,4.651,0,0,1-4.645,4.645M4.645,1.272A3.377,3.377,0,0,0,1.272,4.645V18.131A3.377,3.377,0,0,0,4.645,21.5H18.131a3.377,3.377,0,0,0,3.374-3.374V4.645a3.378,3.378,0,0,0-3.374-3.373Z" transform="translate(0 0)" fill="#0f192d"/>
    </g>
  </g>
</svg>
