<svg xmlns="http://www.w3.org/2000/svg" xmlns:xlink="http://www.w3.org/1999/xlink" width="238.86" height="71.631" viewBox="0 0 238.86 71.631"><defs><clipPath id="a"><rect width="238.86" height="71.631" fill="#fff"/></clipPath></defs><g clip-path="url(#a)"><path d="M111.141,19.407a12.989,12.989,0,0,1-.9,5.033A9.319,9.319,0,0,1,107.695,28a10.846,10.846,0,0,1-4.024,2.116,18.665,18.665,0,0,1-5.322.7q-1.345,0-3.142-.111a25.547,25.547,0,0,1-3.526-.465V8.6a29.246,29.246,0,0,1,3.606-.433q1.876-.112,3.223-.112a19.518,19.518,0,0,1,5.177.64,10.619,10.619,0,0,1,3.992,2.02,9,9,0,0,1,2.565,3.527,13.366,13.366,0,0,1,.9,5.161M96.682,26.461q.353.031.818.048c.309.011.678.015,1.106.015q3.75,0,5.562-1.891a7.246,7.246,0,0,0,1.811-5.226,7.335,7.335,0,0,0-1.731-5.29q-1.731-1.794-5.482-1.8c-.342,0-.695.006-1.058.016s-.705.038-1.026.08Z" fill="#fff"/><path d="M119.3,8.8a2.621,2.621,0,0,1-.849,2.067,3.04,3.04,0,0,1-4.008,0A2.622,2.622,0,0,1,113.6,8.8a2.627,2.627,0,0,1,.85-2.069,3.043,3.043,0,0,1,4.008,0A2.627,2.627,0,0,1,119.3,8.8m-.449,21.736h-4.777V13.669h4.777Z" fill="#fff"/><path d="M137.167,29.987q-.642.192-1.475.368t-1.747.305q-.914.128-1.859.208t-1.812.081a10.6,10.6,0,0,1-3.719-.61,7.453,7.453,0,0,1-2.757-1.747,7.582,7.582,0,0,1-1.715-2.757,10.51,10.51,0,0,1-.593-3.639,12.424,12.424,0,0,1,.513-3.7,8.046,8.046,0,0,1,1.474-2.805,6.314,6.314,0,0,1,2.357-1.764,7.913,7.913,0,0,1,3.19-.608,7.467,7.467,0,0,1,1.779.192,9.6,9.6,0,0,1,1.587.545V6.422l4.777-.769Zm-10.8-8.015a5.853,5.853,0,0,0,.994,3.559,3.431,3.431,0,0,0,2.949,1.345c.428,0,.823-.015,1.186-.048s.663-.069.9-.112V18.029a4.119,4.119,0,0,0-1.17-.482,5.648,5.648,0,0,0-1.459-.192q-3.4,0-3.4,4.617" fill="#fff"/><path d="M146.792,13.219a11.05,11.05,0,0,1,3.526.482,5.467,5.467,0,0,1,2.26,1.378,5.07,5.07,0,0,1,1.2,2.181,10.743,10.743,0,0,1,.353,2.852v9.94q-1.026.224-2.853.528a27.414,27.414,0,0,1-4.424.305,13.988,13.988,0,0,1-2.966-.289,6.411,6.411,0,0,1-2.292-.946,4.324,4.324,0,0,1-1.475-1.715,5.918,5.918,0,0,1-.513-2.6,4.914,4.914,0,0,1,.593-2.5A4.565,4.565,0,0,1,141.79,21.2a7.171,7.171,0,0,1,2.277-.882,12.732,12.732,0,0,1,2.66-.272,15.237,15.237,0,0,1,1.652.08,7.373,7.373,0,0,1,1.17.208v-.449a2.646,2.646,0,0,0-.738-1.956,3.572,3.572,0,0,0-2.565-.737,16.4,16.4,0,0,0-2.4.177,10.328,10.328,0,0,0-2.052.5l-.609-3.847c.278-.085.625-.177,1.042-.272s.87-.182,1.363-.257,1.009-.139,1.554-.192,1.1-.081,1.652-.081m4.424-5.61-5.274,4.456-2.2-1.955,4.536-5.194ZM147.176,27.2q.705,0,1.347-.032a9.209,9.209,0,0,0,1.026-.1V23.447c-.193-.043-.481-.085-.866-.129a9.793,9.793,0,0,0-1.058-.063,9.364,9.364,0,0,0-1.266.08,3.307,3.307,0,0,0-1.042.3,1.781,1.781,0,0,0-.705.609,1.691,1.691,0,0,0-.257.962,1.637,1.637,0,0,0,.754,1.555,4.163,4.163,0,0,0,2.067.433" fill="#fff"/><path d="M156.653,22.1a9.92,9.92,0,0,1,.593-3.446,8.066,8.066,0,0,1,4.44-4.73,9,9,0,0,1,3.655-.7,11.825,11.825,0,0,1,2.469.24,12.19,12.19,0,0,1,2.18.69L169,17.964a12.2,12.2,0,0,0-1.475-.449,7.726,7.726,0,0,0-1.795-.192,3.784,3.784,0,0,0-3.158,1.314,5.413,5.413,0,0,0-1.042,3.463,5.6,5.6,0,0,0,.978,3.526,4.092,4.092,0,0,0,3.414,1.25,11.592,11.592,0,0,0,1.86-.16A7.876,7.876,0,0,0,169.6,26.2l.673,3.911a11.225,11.225,0,0,1-2.083.609,13.752,13.752,0,0,1-2.758.257,10.383,10.383,0,0,1-3.975-.69,7.488,7.488,0,0,1-2.741-1.876,7.305,7.305,0,0,1-1.571-2.8,11.885,11.885,0,0,1-.5-3.511" fill="#fff"/><path d="M172.224,9.468,177,8.7v4.969h5.739v3.977H177v5.93a4.711,4.711,0,0,0,.529,2.4,2.271,2.271,0,0,0,2.132.9,9.239,9.239,0,0,0,1.587-.143,8.251,8.251,0,0,0,1.491-.4l.673,3.719a13.581,13.581,0,0,1-1.924.609,11.259,11.259,0,0,1-2.6.257,8.58,8.58,0,0,1-3.238-.529,5.087,5.087,0,0,1-2.052-1.476,5.481,5.481,0,0,1-1.073-2.292,13.464,13.464,0,0,1-.305-2.981Z" fill="#fff"/><path d="M190.834,8.8a2.621,2.621,0,0,1-.849,2.067,3.04,3.04,0,0,1-4.008,0,2.621,2.621,0,0,1-.849-2.067,2.627,2.627,0,0,1,.849-2.069,3.043,3.043,0,0,1,4.008,0,2.627,2.627,0,0,1,.849,2.069m-.449,21.736h-4.777V13.669h4.777Z" fill="#fff"/><path d="M193.021,22.1a9.92,9.92,0,0,1,.593-3.446,8.066,8.066,0,0,1,4.44-4.73,9,9,0,0,1,3.655-.7,11.825,11.825,0,0,1,2.469.24,12.19,12.19,0,0,1,2.18.69l-.994,3.815a12.2,12.2,0,0,0-1.475-.449,7.726,7.726,0,0,0-1.8-.192,3.784,3.784,0,0,0-3.158,1.314,5.413,5.413,0,0,0-1.042,3.463,5.6,5.6,0,0,0,.978,3.526,4.092,4.092,0,0,0,3.414,1.25,11.592,11.592,0,0,0,1.86-.16,7.876,7.876,0,0,0,1.827-.512l.673,3.911a11.225,11.225,0,0,1-2.083.609,13.752,13.752,0,0,1-2.758.257,10.383,10.383,0,0,1-3.975-.69,7.488,7.488,0,0,1-2.741-1.876,7.3,7.3,0,0,1-1.571-2.8,11.885,11.885,0,0,1-.5-3.511" fill="#fff"/><path d="M224.339,22.068a10.936,10.936,0,0,1-.577,3.639,7.9,7.9,0,0,1-1.666,2.821,7.516,7.516,0,0,1-2.614,1.811,9.313,9.313,0,0,1-6.8,0,7.507,7.507,0,0,1-2.614-1.811,8.28,8.28,0,0,1-1.7-2.821,10.423,10.423,0,0,1-.61-3.639,10.092,10.092,0,0,1,.625-3.623,8.208,8.208,0,0,1,1.733-2.789,7.753,7.753,0,0,1,2.629-1.8,8.437,8.437,0,0,1,3.317-.642,8.543,8.543,0,0,1,3.351.642,7.6,7.6,0,0,1,2.612,1.8,8.152,8.152,0,0,1,1.7,2.789,10.293,10.293,0,0,1,.609,3.623m-4.872,0a6.006,6.006,0,0,0-.882-3.479,2.886,2.886,0,0,0-2.517-1.266,2.927,2.927,0,0,0-2.533,1.266,5.922,5.922,0,0,0-.9,3.479,6.076,6.076,0,0,0,.9,3.511,2.9,2.9,0,0,0,2.533,1.3,2.863,2.863,0,0,0,2.517-1.3,6.163,6.163,0,0,0,.882-3.511" fill="#fff"/><path d="M231.711,27.1a4.768,4.768,0,0,0,1.859-.256.99.99,0,0,0,.545-.994,1.216,1.216,0,0,0-.705-1.01,13.326,13.326,0,0,0-2.148-.977q-1.122-.419-2.036-.867a5.961,5.961,0,0,1-1.555-1.074,4.325,4.325,0,0,1-.994-1.49,5.519,5.519,0,0,1-.352-2.084,4.5,4.5,0,0,1,1.763-3.751,7.669,7.669,0,0,1,4.841-1.379,15.569,15.569,0,0,1,2.949.273,13.737,13.737,0,0,1,2.245.593l-.834,3.719a18.061,18.061,0,0,0-1.811-.514,9.945,9.945,0,0,0-2.2-.223q-2.245,0-2.244,1.25a1.279,1.279,0,0,0,.1.513,1.086,1.086,0,0,0,.385.432,5.248,5.248,0,0,0,.785.451q.5.243,1.266.534a19.411,19.411,0,0,1,2.6,1.147,6.183,6.183,0,0,1,1.619,1.222,3.772,3.772,0,0,1,.834,1.455,6.473,6.473,0,0,1,.24,1.855,4.278,4.278,0,0,1-1.876,3.776,9.359,9.359,0,0,1-5.3,1.279,14.99,14.99,0,0,1-5.8-1.026l.8-3.879a15.657,15.657,0,0,0,2.5.753,12.2,12.2,0,0,0,2.533.272" fill="#fff"/><path d="M106.236,59.36q-.642.192-1.475.368t-1.747.305q-.914.127-1.859.208t-1.812.081a10.6,10.6,0,0,1-3.719-.61,7.453,7.453,0,0,1-2.757-1.747,7.582,7.582,0,0,1-1.715-2.757,10.51,10.51,0,0,1-.593-3.639,12.424,12.424,0,0,1,.513-3.7,8.046,8.046,0,0,1,1.474-2.805A6.314,6.314,0,0,1,94.9,43.3a7.912,7.912,0,0,1,3.19-.608,7.467,7.467,0,0,1,1.779.192,9.6,9.6,0,0,1,1.587.545V35.795l4.777-.769Zm-10.8-8.015a5.853,5.853,0,0,0,.994,3.559,3.431,3.431,0,0,0,2.949,1.345c.428,0,.823-.015,1.186-.048s.663-.069.9-.112V47.4a4.119,4.119,0,0,0-1.17-.482,5.649,5.649,0,0,0-1.459-.192q-3.4,0-3.4,4.617" fill="#fff"/><path d="M108.948,51.6a10.325,10.325,0,0,1,.689-3.927,8.413,8.413,0,0,1,1.812-2.805,7.521,7.521,0,0,1,2.581-1.7,8.075,8.075,0,0,1,3-.578,7.454,7.454,0,0,1,5.675,2.2q2.083,2.2,2.084,6.46c0,.278-.012.583-.033.914s-.042.625-.063.882H113.853a3.172,3.172,0,0,0,1.379,2.339,5.541,5.541,0,0,0,3.27.866,13.756,13.756,0,0,0,2.581-.241,9.725,9.725,0,0,0,2.067-.592l.642,3.878a6.532,6.532,0,0,1-1.026.385,13.453,13.453,0,0,1-1.427.337q-.786.144-1.683.24a16.608,16.608,0,0,1-1.795.1,10.625,10.625,0,0,1-3.96-.674,7.694,7.694,0,0,1-2.789-1.843,7.329,7.329,0,0,1-1.635-2.773,11,11,0,0,1-.529-3.463m11.221-1.827a4.948,4.948,0,0,0-.208-1.187,2.983,2.983,0,0,0-.545-1.025,2.911,2.911,0,0,0-.93-.737,3.021,3.021,0,0,0-1.395-.289,3.228,3.228,0,0,0-1.378.272,2.851,2.851,0,0,0-.962.722,3.221,3.221,0,0,0-.593,1.042,6.9,6.9,0,0,0-.305,1.2Z" fill="#fff"/><path d="M134.176,60.225a11.951,11.951,0,0,1-3.382-.448,5,5,0,0,1-2.052-1.171,3.872,3.872,0,0,1-1.026-1.827,9.845,9.845,0,0,1-.272-2.42V35.795l4.776-.769V53.4a6.3,6.3,0,0,0,.1,1.154,1.994,1.994,0,0,0,.368.865,1.958,1.958,0,0,0,.786.578,4.3,4.3,0,0,0,1.378.288Z" fill="#fff"/><path d="M150.045,56.09a7.249,7.249,0,0,0,1.748-.176,3.207,3.207,0,0,0,1.106-.481,1.621,1.621,0,0,0,.577-.721,2.592,2.592,0,0,0,.16-.93,2.147,2.147,0,0,0-1.026-1.811,14.634,14.634,0,0,0-3.527-1.555q-1.089-.385-2.18-.882a8,8,0,0,1-1.956-1.251,5.973,5.973,0,0,1-1.41-1.827,5.714,5.714,0,0,1-.545-2.612,6.473,6.473,0,0,1,.577-2.774,5.925,5.925,0,0,1,1.635-2.1,7.5,7.5,0,0,1,2.565-1.33,11.5,11.5,0,0,1,3.4-.465,13.559,13.559,0,0,1,6.572,1.539L156.3,42.657a13.79,13.79,0,0,0-2.068-.849,8.981,8.981,0,0,0-2.741-.369,5.031,5.031,0,0,0-2.581.5,1.677,1.677,0,0,0-.785,1.523,1.762,1.762,0,0,0,.288,1.026,2.8,2.8,0,0,0,.818.753,7.128,7.128,0,0,0,1.218.609q.688.273,1.523.561,1.731.642,3.013,1.267a8.014,8.014,0,0,1,2.132,1.458,5.289,5.289,0,0,1,1.266,1.956,7.851,7.851,0,0,1,.417,2.725,5.787,5.787,0,0,1-2.18,4.825q-2.18,1.715-6.572,1.716a18.275,18.275,0,0,1-2.661-.177,17.055,17.055,0,0,1-2.1-.433,11.953,11.953,0,0,1-1.571-.545,11.825,11.825,0,0,1-1.106-.545l1.411-3.975a12.558,12.558,0,0,0,2.452.977,12.706,12.706,0,0,0,3.575.433" fill="#fff"/><path d="M175.738,59.328a26.678,26.678,0,0,1-3.143.657,25.821,25.821,0,0,1-4.04.305,9.582,9.582,0,0,1-3.574-.577,5.424,5.424,0,0,1-2.261-1.619,6.328,6.328,0,0,1-1.185-2.485,13.313,13.313,0,0,1-.353-3.174V43.042h4.778v8.816a6.821,6.821,0,0,0,.608,3.334,2.421,2.421,0,0,0,2.276,1.027c.342,0,.706-.017,1.09-.049s.726-.069,1.026-.113V43.042h4.778Z" fill="#fff"/><path d="M189.421,47.273q-.642-.159-1.507-.336a9.35,9.35,0,0,0-1.859-.177,8.9,8.9,0,0,0-1.074.08,6.374,6.374,0,0,0-.946.177V59.9h-4.777V43.939a28.878,28.878,0,0,1,3.03-.85,17.52,17.52,0,0,1,3.9-.4c.257,0,.566.016.929.048s.727.075,1.091.128.726.118,1.09.192a5.118,5.118,0,0,1,.929.273Z" fill="#fff"/><path d="M8.952,0A8.948,8.948,0,0,0,0,8.952V62.679a8.956,8.956,0,0,0,17.911,0V8.952A8.954,8.954,0,0,0,8.952,0" fill="#ff3d57"/><path d="M33.656,0a7.7,7.7,0,0,0,0,15.39,20.426,20.426,0,0,1,0,40.851,7.695,7.695,0,1,0,0,15.39A35.815,35.815,0,1,0,33.656,0" fill="#3390ff"/></g></svg>