<svg xmlns="http://www.w3.org/2000/svg" width="77.93" height="79.588" viewBox="0 0 77.93 79.588"><g transform="translate(-1.737 0)"><g transform="translate(1.737 0)"><path d="M78.908,44.326,63.47,34.377a1.626,1.626,0,0,0-.384-.149V30.8a1.657,1.657,0,0,0-1.658-1.658H55.271L42.41,21.1a1.656,1.656,0,0,0-1.758,0L27.791,29.139H19.976A1.657,1.657,0,0,0,18.318,30.8v3.43a1.6,1.6,0,0,0-.384.15L2.5,44.326a1.661,1.661,0,0,0-.76,1.394V88.83A1.657,1.657,0,0,0,3.4,90.488H78.009a1.657,1.657,0,0,0,1.658-1.658V45.72A1.662,1.662,0,0,0,78.908,44.326ZM41.531,24.463l7.483,4.676H34.048Zm-19.9,7.992H59.77V69.762s0,.009,0,.014l-5.609,3.406-13.5-7.362a1.662,1.662,0,0,0-1.616.016L26.734,72.874l-5.1-3.1s0-.009,0-.013ZM5.054,46.623l13.264-8.547V67.765L5.054,59.71Zm0,16.965,18.39,11.165L5.054,85.263ZM8.395,87.172l31.5-18,33,18Zm67.956-1.889L57.528,75.017,76.351,63.588Zm0-25.573L63.086,67.764V38.077l13.265,8.547Z" transform="translate(-1.737 -10.9)" fill="#4a0812"/><path d="M55.514,65.385h19.9a1.657,1.657,0,0,0,1.658-1.658V53.778a1.657,1.657,0,0,0-1.658-1.658h-19.9a1.657,1.657,0,0,0-1.658,1.658v9.948A1.657,1.657,0,0,0,55.514,65.385Zm1.658-9.949H73.753v6.632H57.172Z" transform="translate(-28.985 -27.248)" fill="#4a0812"/><rect width="26.529" height="3.316" transform="translate(24.871 41.453)" fill="#4a0812"/><rect width="26.529" height="3.316" transform="translate(24.871 48.085)" fill="#4a0812"/><path d="M145.854,31.643a1.653,1.653,0,0,0,1.173-.486l5.861-5.861a1.658,1.658,0,0,0-2.344-2.345l-5.861,5.861a1.658,1.658,0,0,0,1.172,2.83Z" transform="translate(-76.214 -11.745)" fill="#ffe8eb"/><path d="M9.7,31.157a1.658,1.658,0,1,0,2.345-2.345L6.183,22.951A1.658,1.658,0,0,0,3.839,25.3Z" transform="translate(-2.582 -11.745)" fill="#ffe8eb"/><path d="M117.441,11.489a1.639,1.639,0,0,0,.615.118,1.658,1.658,0,0,0,1.54-1.043l3.316-8.29a1.658,1.658,0,0,0-3.079-1.231l-3.316,8.29A1.658,1.658,0,0,0,117.441,11.489Z" transform="translate(-61.681 0)" fill="#ffe8eb"/><path d="M43.392,10.565a1.657,1.657,0,0,0,1.54,1.043,1.636,1.636,0,0,0,.615-.118,1.658,1.658,0,0,0,.924-2.155l-3.316-8.29a1.658,1.658,0,1,0-3.079,1.231Z" transform="translate(-21.718 -0.001)" fill="#ffe8eb"/></g></g></svg>