<?xml version="1.0" encoding="UTF-8"?>
<!DOCTYPE svg PUBLIC "-//W3C//DTD SVG 1.1//EN" "http://www.w3.org/Graphics/SVG/1.1/DTD/svg11.dtd">
<svg xmlns="http://www.w3.org/2000/svg" version="1.1" width="24px" height="30px" style="shape-rendering:geometricPrecision; text-rendering:geometricPrecision; image-rendering:optimizeQuality; fill-rule:evenodd; clip-rule:evenodd" xmlns:xlink="http://www.w3.org/1999/xlink">
<g><path style="opacity:0.776" fill="#e2decc" d="M 13.5,-0.5 C 14.8333,-0.5 16.1667,-0.5 17.5,-0.5C 17.8333,0.166667 18.1667,0.833333 18.5,1.5C 17.8333,2.16667 17.1667,2.83333 16.5,3.5C 16.5,2.83333 16.1667,2.5 15.5,2.5C 14.7611,2.63101 14.0944,2.46434 13.5,2C 14.5,1.66667 15.5,1.33333 16.5,1C 15.2625,0.76791 14.2625,0.26791 13.5,-0.5 Z"/></g>
<g><path style="opacity:0.968" fill="#efe9cd" d="M 8.5,-0.5 C 10.1667,-0.5 11.8333,-0.5 13.5,-0.5C 14.2625,0.26791 15.2625,0.76791 16.5,1C 15.5,1.33333 14.5,1.66667 13.5,2C 14.0944,2.46434 14.7611,2.63101 15.5,2.5C 16.1667,2.5 16.5,2.83333 16.5,3.5C 17.1667,2.83333 17.8333,2.16667 18.5,1.5C 18.7733,3.45101 18.1066,4.95101 16.5,6C 17,6.5 17.5,7 18,7.5C 18.4995,13.8246 18.6662,20.1579 18.5,26.5C 17.8333,22.5 17.1667,18.5 16.5,14.5C 14.2646,14.7947 12.2646,14.4614 10.5,13.5C 18.5,12.8333 18.5,12.1667 10.5,11.5C 10.5,11.1667 10.5,10.8333 10.5,10.5C 12.604,10.7989 14.604,10.4656 16.5,9.5C 16.3764,8.89333 16.0431,8.55999 15.5,8.5C 15.5,7.83333 15.1667,7.5 14.5,7.5C 12.3926,6.53178 10.0593,6.19845 7.5,6.5C 7.36596,4.70848 7.69929,3.04181 8.5,1.5C 8.5,0.833333 8.5,0.166667 8.5,-0.5 Z"/></g>
<g><path style="opacity:0.376" fill="#cfcbbc" d="M 10.5,0.5 C 12.337,0.639452 12.6704,1.30612 11.5,2.5C 10.7025,2.04311 10.3691,1.37644 10.5,0.5 Z"/></g>
<g><path style="opacity:0.69" fill="#e6e2d0" d="M 8.5,1.5 C 7.69929,3.04181 7.36596,4.70848 7.5,6.5C 10.0593,6.19845 12.3926,6.53178 14.5,7.5C 11.7531,7.18665 9.08645,7.51998 6.5,8.5C 7.61191,9.26515 8.27858,10.2652 8.5,11.5C 8.16667,11.5 7.83333,11.5 7.5,11.5C 6.5,10.5 5.5,9.5 4.5,8.5C 5.3971,5.78734 6.73044,3.45401 8.5,1.5 Z"/></g>
<g><path style="opacity:0.271" fill="#dcd6bb" d="M 15.5,8.5 C 16.0431,8.55999 16.3764,8.89333 16.5,9.5C 14.604,10.4656 12.604,10.7989 10.5,10.5C 10.5,10.1667 10.5,9.83333 10.5,9.5C 12.4147,9.78448 14.0813,9.45115 15.5,8.5 Z"/></g>
<g><path style="opacity:0.92" fill="#fdf7d8" d="M 4.5,8.5 C 5.5,9.5 6.5,10.5 7.5,11.5C 4.88747,12.0955 4.88747,12.9288 7.5,14C 5.36801,15.6204 5.03468,17.4537 6.5,19.5C 6.83333,19.5 7.16667,19.5 7.5,19.5C 4.83333,21.1667 4.83333,22.8333 7.5,24.5C 6.10008,25.0998 5.10008,26.0998 4.5,27.5C 4.5,21.1667 4.5,14.8333 4.5,8.5 Z"/></g>
<g><path style="opacity:0.102" fill="#cbcac2" d="M 10.5,11.5 C 18.5,12.1667 18.5,12.8333 10.5,13.5C 10.5,12.8333 10.5,12.1667 10.5,11.5 Z"/></g>
<g><path style="opacity:0.118" fill="#e6e3d6" d="M 7.5,11.5 C 7.83333,11.5 8.16667,11.5 8.5,11.5C 8.77328,13.451 8.10661,14.951 6.5,16C 8.93121,17.0924 8.93121,18.2591 6.5,19.5C 5.03468,17.4537 5.36801,15.6204 7.5,14C 4.88747,12.9288 4.88747,12.0955 7.5,11.5 Z"/></g>
<g><path style="opacity:0.231" fill="#f4f2e9" d="M 10.5,9.5 C 10.5,9.83333 10.5,10.1667 10.5,10.5C 10.5,10.8333 10.5,11.1667 10.5,11.5C 10.5,12.1667 10.5,12.8333 10.5,13.5C 12.2646,14.4614 14.2646,14.7947 16.5,14.5C 16.5,15.1667 16.1667,15.5 15.5,15.5C 13.5,15.5 11.5,15.5 9.5,15.5C 9.20528,13.2646 9.53862,11.2646 10.5,9.5 Z"/></g>
<g><path style="opacity:0.667" fill="#eae6d3" d="M 7.5,19.5 C 6.16667,21.1667 6.16667,22.8333 7.5,24.5C 4.83333,22.8333 4.83333,21.1667 7.5,19.5 Z"/></g>
<g><path style="opacity:0.984" fill="#f1ebd0" d="M 16.5,14.5 C 17.1667,18.5 17.8333,22.5 18.5,26.5C 18.3893,27.1174 18.056,27.6174 17.5,28C 13.8484,28.4986 10.1817,28.6653 6.5,28.5C 9.83333,27.8333 13.1667,27.1667 16.5,26.5C 15.0821,24.6921 13.0821,24.0254 10.5,24.5C 9.95691,24.44 9.62358,24.1067 9.5,23.5C 11.7662,22.6858 14.0995,22.1858 16.5,22C 7.16667,21 7.16667,20 16.5,19C 7.81506,18.3244 7.48173,17.1578 15.5,15.5C 16.1667,15.5 16.5,15.1667 16.5,14.5 Z"/></g>
<g><path style="opacity:0.005" fill="#d7d0b7" d="M 10.5,24.5 C 13.0821,24.0254 15.0821,24.6921 16.5,26.5C 16.1667,26.5 15.8333,26.5 15.5,26.5C 13.8333,25.8333 12.1667,25.1667 10.5,24.5 Z"/></g>
<g><path style="opacity:0.251" fill="#e2dfd3" d="M 7.5,24.5 C 7.38929,25.1174 7.05596,25.6174 6.5,26C 9.48162,26.498 12.4816,26.6646 15.5,26.5C 15.8333,26.5 16.1667,26.5 16.5,26.5C 13.1667,27.1667 9.83333,27.8333 6.5,28.5C 5.50838,28.6716 4.84171,28.3382 4.5,27.5C 5.10008,26.0998 6.10008,25.0998 7.5,24.5 Z"/></g>
</svg>
