<svg xmlns="http://www.w3.org/2000/svg" width="23.379" height="23.379" viewBox="0 0 23.379 23.379">
  <g id="block-toys-svgrepo-com" transform="translate(-3 -3)">
    <path id="Trazado_2244" data-name="Trazado 2244" d="M18.39,4.3a1.3,1.3,0,0,0-1.3-1.3H9.3A1.3,1.3,0,0,0,8,4.3V13.39H18.39Z" transform="translate(1.494)" fill="#bdcaf4"/>
    <path id="Trazado_2245" data-name="Trazado 2245" d="M3,14.3v7.793a1.3,1.3,0,0,0,1.3,1.3H13.39V13H4.3A1.3,1.3,0,0,0,3,14.3Z" transform="translate(0 2.988)" fill="#bdcaf4"/>
    <path id="Trazado_2246" data-name="Trazado 2246" d="M22.092,13H13V23.39h9.092a1.3,1.3,0,0,0,1.3-1.3V14.3A1.3,1.3,0,0,0,22.092,13Z" transform="translate(2.988 2.988)" fill="#bdcaf4"/>
  </g>
</svg>
