<?xml version="1.0" encoding="utf-8"?>
<!-- Generator: Adobe Illustrator 24.1.1, SVG Export Plug-In . SVG Version: 6.00 Build 0)  -->
<svg version="1.1" id="Capa_1" xmlns="http://www.w3.org/2000/svg" xmlns:xlink="http://www.w3.org/1999/xlink" x="0px" y="0px"
	 viewBox="0 0 24.6 25" style="enable-background:new 0 0 24.6 25;" xml:space="preserve">
<style type="text/css">
	.st0{fill:#B678FF;}
</style>
<path id="school-bag-svgrepo-com" class="st0" d="M18.6,16.2v4.5c0,0.4-0.3,0.7-0.7,0.7H6.7c-0.4,0-0.7-0.3-0.7-0.7v-4.5
	c0-0.4,0.3-0.7,0.7-0.7h11.2C18.3,15.5,18.6,15.8,18.6,16.2z M24.6,16.2v4.6c0,1-0.8,1.8-1.8,1.8h-1.1c-0.1,1.4-1.3,2.4-2.7,2.5H5.5
	c-1.4,0-2.5-1.1-2.7-2.5H1.8c-1,0-1.8-0.8-1.8-1.8v-4.6c0-1,0.8-1.8,1.8-1.8h1.1v-8c0-1.5,1.2-2.7,2.7-2.7h3.2V3.2
	c0-1.8,1.4-3.2,3.2-3.2h0.9c1.8,0,3.2,1.4,3.2,3.2v0.6h3.2c1.5,0,2.7,1.2,2.7,2.7v8h1.1C23.8,14.4,24.6,15.2,24.6,16.2z M9.8,3.7
	h4.9V3.2c0-1.1-0.9-2-2-2h-0.9c-1.1,0-2,0.9-2,2L9.8,3.7L9.8,3.7z M19.7,16.2c0-1-0.8-1.9-1.9-1.9H6.7c-1,0-1.9,0.8-1.9,1.9v4.5
	c0,1,0.8,1.9,1.9,1.9h11.2c1,0,1.9-0.8,1.9-1.9V16.2z M19.7,7.7c0-1.1-0.9-2-2-2H6.9c-1.1,0-2,0.9-2,2v2c0,0.3,0.3,0.6,0.6,0.6
	C5.7,10.2,6,9.9,6,9.6v-2c0-0.5,0.4-0.9,0.9-0.9h10.8c0.5,0,0.9,0.4,0.9,0.9v1.7c0,0.3,0.2,0.6,0.6,0.6s0.6-0.2,0.6-0.6c0,0,0,0,0,0
	V7.7z"/>
</svg>
