<svg xmlns="http://www.w3.org/2000/svg" width="24.353" height="23.378" viewBox="0 0 24.353 23.378">
  <path id="toys" d="M2.948,1.25c1.262,1.461.579,2.472,0,3.409A20.183,20.183,0,0,0,1,8.556a2.065,2.065,0,0,0,1.948,1.522A11.909,11.909,0,0,0,4.9,8.069S6.845,10.5,6.845,12.452c0,1.185-1.948,5.6-1.948,5.6a7.75,7.75,0,0,0,1.948.974s1.99-4.116,3.9-4.627a8.127,8.127,0,0,1,3.9,0c1.916.514,3.9,4.627,3.9,4.627a12.569,12.569,0,0,0,1.948-.974s-1.692-3.672-1.948-4.627c0,0-.819-2.478,0-3.9,2.514-1.451,4.871-.191,4.871,3.9,1.029-.594,1.979-2.922,1.948-3.9-.927-3.46-4.871-4.871-7.793-1.948-1.881-1.086-5.133-1.2-7.793-.487C9.767,2.711,5.792,1.25,2.948,1.25ZM4.166,4.659a.731.731,0,1,1-.731.731A.731.731,0,0,1,4.166,4.659ZM2.461,18.3,1,20.245s3.9,4.383,11.689,4.383,11.689-4.383,11.689-4.383L22.917,18.3a17.018,17.018,0,0,1-10.228,3.9A17.018,17.018,0,0,1,2.461,18.3Z" transform="translate(-1 -1.25)" fill="#cef2d2"/>
</svg>
