<svg xmlns="http://www.w3.org/2000/svg" width="36.586" height="36.609" viewBox="0 0 36.586 36.609">
  <path id="whatsapp-svgrepo-com-2" d="M35.118,9.308A17.961,17.961,0,0,0,22.3,4,18.167,18.167,0,0,0,6.563,31.205L4,40.609l9.61-2.517A18.127,18.127,0,0,0,35.118,9.308ZM22.3,37.246a15.054,15.054,0,0,1-7.688-2.105l-.549-.343-5.7,1.51,1.51-5.56-.366-.572a15.162,15.162,0,1,1,12.79,7.07Zm8.26-11.3c-.458-.229-2.677-1.327-3.089-1.464s-.732-.229-1.03.229A20.6,20.6,0,0,1,25,26.469c-.252.32-.526.343-.984,0a12.2,12.2,0,0,1-6.155-5.377c-.48-.8.458-.755,1.327-2.471a.869.869,0,0,0,0-.8c0-.229-1.03-2.471-1.4-3.363s-.732-.755-1.03-.778h-.892a1.624,1.624,0,0,0-1.213.572,5.011,5.011,0,0,0-1.51,3.867,8.74,8.74,0,0,0,1.853,4.691,20.34,20.34,0,0,0,7.757,6.864,8.811,8.811,0,0,0,5.446,1.144,4.577,4.577,0,0,0,3.043-2.151,3.706,3.706,0,0,0,.275-2.151A3.2,3.2,0,0,0,30.564,25.943Z" transform="translate(-4 -4)" fill="#61de87"/>
</svg>
